# xmcd
#
# Track frame offsets:
#	150
#	13655
#	29348
#	45226
#	58492
#	81775
#	95130
#	106919
#	124658
#	144186
#	156858
#	175849
#	194520
#	206371
#	220386
#	236025
#	252709
#	267896
#	279490
#	292401
#
# Disc length: 4084 seconds
#
# Revision: 1
# Processed by: cddbd v1.5.1PL0 Copyright (c) Steve Scherf et al.
# Submitted via: audiograbber 1.83.01
#
DISCID=320ff214
DTITLE=Taisto Wesslin - Kitara gitarr guitar 1973-
DYEAR=2003
DGENRE=pop
TTITLE0=GRANADA
TTITLE1=KIRSIKANKUKKA
TTITLE2=KAKSI KITARAA
TTITLE3=ULLA
TTITLE4=SURUN PYYHIT SILMISTÄNI
TTITLE5=VANHAN TALON SAMBA
TTITLE6=AURIGON LAPSET
TTITLE7=BOSSAMBA
TTITLE8=ANDALUCIA
TTITLE9=MIKÄ SINUN OIKEIN ON
TTITLE10=SUMMERTIME
TTITLE11=CASTILLO DE FANTASIA
TTITLE12=LAURA
TTITLE13=BARCELONA
TTITLE14=KAAMOS
TTITLE15=CARNAVAL
TTITLE16=RUKA
TTITLE17=OVER THE RAINBOW
TTITLE18=REQUERDO
TTITLE19=CARMEN
EXTD=
EXTT0=
EXTT1=
EXTT2=
EXTT3=
EXTT4=
EXTT5=
EXTT6=
EXTT7=
EXTT8=
EXTT9=
EXTT10=
EXTT11=
EXTT12=
EXTT13=
EXTT14=
EXTT15=
EXTT16=
EXTT17=
EXTT18=
EXTT19=
PLAYORDER=
